<?xml version="1.0" encoding="UTF-8"?>
<svg width="40px" height="40px" viewBox="0 0 40 40" version="1.1" xmlns="http://www.w3.org/2000/svg" xmlns:xlink="http://www.w3.org/1999/xlink">
    <!-- Generator: Sketch 50 (54983) - http://www.bohemiancoding.com/sketch -->
    <title>instagram</title>
    <desc>Created with Sketch.</desc>
    <defs>
        <polygon id="path-1" points="39.8924444 20.0538444 39.8924444 40 0 40 0 20.0538444 0 0.107688889 39.8924444 0.107688889"></polygon>
    </defs>
    <g id="Page-1" stroke="none" stroke-width="1" fill="none" fill-rule="evenodd">
        <g id="Desktop-Copy-4" transform="translate(-292.000000, -731.000000)">
            <g id="instagram" transform="translate(292.000000, 731.000000)">
                <g>
                    <path d="M26.3255111,15.5422667 C25.5188444,15.5422667 24.8628444,14.8862667 24.8628444,14.0800444 C24.8628444,13.2738222 25.5188444,12.6178222 26.3255111,12.6178222 C27.1312889,12.6178222 27.7877333,13.2738222 27.7877333,14.0800444 C27.7877333,14.8862667 27.1312889,15.5422667 26.3255111,15.5422667 M19.9459556,26.6249333 C16.5384,26.6249333 13.7664,23.8524889 13.7664,20.4444889 C13.7664,17.0369333 16.5384,14.2644889 19.9459556,14.2644889 C23.3539556,14.2644889 26.1268444,17.0369333 26.1268444,20.4444889 C26.1268444,23.8520444 23.3535111,26.6249333 19.9459556,26.6249333 M25.8908444,11.0578222 L14.0015111,11.0578222 C12.1032889,11.0578222 10.5592889,12.6018222 10.5592889,14.4996 L10.5592889,26.3893778 C10.5592889,28.2871556 12.1032889,29.8316 14.0015111,29.8316 L25.8908444,29.8316 C27.7890667,29.8316 29.3335111,28.2876 29.3335111,26.3893778 L29.3335111,14.4996 C29.3335111,12.6018222 27.7895111,11.0578222 25.8908444,11.0578222" id="Fill-1" fill="#333333"></path>
                    <path d="M16.3772889,20.4440444 C16.3772889,22.4120444 17.9790667,24.0133778 19.9461778,24.0133778 C21.9141778,24.0133778 23.5146222,22.4120444 23.5146222,20.4440444 C23.5146222,18.4773778 21.9137333,16.8760444 19.9461778,16.8760444 C17.9790667,16.8760444 16.3772889,18.4769333 16.3772889,20.4440444 Z" id="Fill-3" fill="#333333"></path>
                    <mask id="mask-2" fill="white">
                        <use xlink:href="#path-1"></use>
                    </mask>
                    <g id="Clip-6"></g>
                    <path d="M31.9444444,26.0525778 C31.9444444,29.3908 29.2293333,32.1059111 25.8911111,32.1059111 L14.0013333,32.1059111 C10.6635556,32.1059111 7.948,29.3908 7.948,26.0525778 L7.948,14.1628 C7.948,10.8250222 10.6635556,8.10902222 14.0013333,8.10902222 L25.8911111,8.10902222 C29.2293333,8.10902222 31.9444444,10.8250222 31.9444444,14.1628 L31.9444444,26.0525778 Z M0,20.0534667 C0,31.0694667 8.93066667,40.0001333 19.9462222,40.0001333 C30.9617778,40.0001333 39.8924444,31.0694667 39.8924444,20.0534667 C39.8924444,9.03835556 30.9617778,0.107688889 19.9462222,0.107688889 C8.93066667,0.107688889 0,9.03835556 0,20.0534667 Z" id="Fill-5" fill="#333333" mask="url(#mask-2)"></path>
                </g>
            </g>
        </g>
    </g>
</svg>