<?xml version="1.0" encoding="UTF-8"?>
<svg width="11px" height="11px" viewBox="0 0 11 11" version="1.1" xmlns="http://www.w3.org/2000/svg" xmlns:xlink="http://www.w3.org/1999/xlink">
    <!-- Generator: Sketch 50.2 (55047) - http://www.bohemiancoding.com/sketch -->
    <title>internet</title>
    <desc>Created with Sketch.</desc>
    <defs></defs>
    <g id="Symbols" stroke="none" stroke-width="1" fill="none" fill-rule="evenodd">
        <g id="Iteam's_card_big-Copy-2" transform="translate(-10.000000, -9.000000)" fill="#FFFFFF" fill-rule="nonzero">
            <g id="internet">
                <g transform="translate(10.000000, 9.000000)">
                    <g id="Shape">
                        <path d="M9.61324138,9.14555172 C10.4750345,8.17432759 11,6.89756897 11,5.5 C11,4.04591379 10.4317931,2.72287931 9.50703448,1.73837931 C9.50703448,1.73837931 9.50703448,1.73818966 9.50703448,1.73818966 C9.50627586,1.73705172 9.50513793,1.73667241 9.50456897,1.73572414 C8.54131034,0.711775862 7.19172414,0.0563275862 5.69060345,0.00493103448 L5.69041379,0.00474137931 L5.58325862,0.00189655172 C5.55556897,0.000948275862 5.52787931,0 5.5,0 C5.47212069,0 5.44443103,0.000948275862 5.41674138,0.00189655172 L5.30996552,0.00474137931 L5.30977586,0.00493103448 C3.80865517,0.0563275862 2.45906897,0.711775862 1.49581034,1.73572414 C1.49505172,1.73667241 1.49391379,1.73705172 1.49334483,1.73818966 C1.49334483,1.73818966 1.49334483,1.73837931 1.49315517,1.73856897 C0.568206897,2.72287931 0,4.04591379 0,5.5 C0,6.89756897 0.524965517,8.17432759 1.38675862,9.14555172 C1.38789655,9.14725862 1.38789655,9.14915517 1.38922414,9.15086207 C1.39263793,9.15560345 1.39756897,9.15787931 1.40117241,9.16224138 C2.36955172,10.2447931 3.75896552,10.9421552 5.30958621,10.9952586 L5.30977586,10.9954483 L5.41655172,10.9982931 C5.44443103,10.9990517 5.47212069,11 5.5,11 C5.52787931,11 5.55556897,10.9990517 5.58325862,10.9981034 L5.69003448,10.9952586 L5.69022414,10.995069 C7.24255172,10.9417759 8.63348276,10.2430862 9.60186207,9.15825862 C9.60432759,9.15503448 9.60831034,9.15408621 9.61058621,9.15067241 C9.61210345,9.14915517 9.61210345,9.14725862 9.61324138,9.14555172 Z M0.379310345,5.68965517 L2.58974414,5.68965517 C2.61055386,6.4764898 2.76303567,7.24105026 3.03448276,7.95735005 C2.51074088,8.14835095 2.01001861,8.40450377 1.54078714,8.72413793 C0.850751694,7.89683859 0.42129809,6.84234284 0.379310345,5.68965517 Z M1.6126796,2.27586207 C2.0604576,2.5650647 2.5372116,2.79671279 3.03448276,2.9697339 C2.72996492,3.70382241 2.56150824,4.49528673 2.53955128,5.31034483 L0.379310345,5.31034483 C0.42232439,4.14727837 0.880900904,3.08823906 1.6126796,2.27586207 Z M10.6206897,5.31034483 L8.46044872,5.31034483 C8.43849176,4.49528673 8.27003508,3.70382241 7.96551724,2.9697339 C8.4627884,2.79671279 8.9395424,2.5650647 9.3873204,2.27586207 C10.1190991,3.08823906 10.5776756,4.14727837 10.6206897,5.31034483 Z M5.31034483,2.65517241 C4.79253762,2.6400234 4.28422325,2.56039871 3.79310345,2.41814579 C4.15615955,1.64997999 4.66877257,0.956635531 5.31034483,0.379310345 L5.31034483,2.65517241 Z M5.31034483,3.29682261 L5.31034483,5.31034483 L3.03448276,5.31034483 C3.0578649,4.51712252 3.23123495,3.74779905 3.54128599,3.03448276 C4.11272279,3.19338263 4.70602095,3.28131573 5.31034483,3.29682261 Z M5.68965517,3.29682261 C6.29392858,3.28131573 6.88717718,3.19356506 7.45875634,3.03448276 C7.76878148,3.74779905 7.94213705,4.51712252 7.96551724,5.31034483 L5.68965517,5.31034483 L5.68965517,3.29682261 Z M5.68965517,2.65517241 L5.68965517,0.379310345 C6.33122743,0.956635531 6.84384045,1.64997999 7.20689655,2.41814579 C6.71577675,2.56039871 6.20746238,2.6400234 5.68965517,2.65517241 Z M7.64546555,2.27586207 C7.26153343,1.57132855 6.7287052,0.929459128 6.06896552,0.379310345 C7.23934891,0.513390513 8.29241416,0.976894801 9.10344828,1.66024856 C8.64296956,1.91615614 8.15451038,2.12200245 7.64546555,2.27586207 Z M3.35433459,2.27586207 C2.84528976,2.12200245 2.35683058,1.91615614 1.89655172,1.66024856 C2.70738598,0.976894801 3.76065109,0.513390513 4.93103448,0.379310345 C4.27109494,0.929459128 3.73826671,1.57132855 3.35433459,2.27586207 Z M3.03448276,5.68965517 L5.31034483,5.68965517 L5.31034483,7.66263241 C4.68168831,7.67992888 4.0657684,7.78134911 3.47380094,7.96551724 C3.20633202,7.24712396 3.05596392,6.47959296 3.03448276,5.68965517 Z M5.31034483,7.96551724 L5.31034483,10.6206897 C4.65556056,9.95380636 4.1421851,9.14357805 3.79310345,8.24483069 C4.28273999,8.07636541 4.79133351,7.98266282 5.31034483,7.96551724 Z M5.68965517,10.6206897 L5.68965517,7.96551724 C6.20866649,7.98246345 6.71726001,8.07636541 7.20689655,8.24463133 C6.8578149,9.14357805 6.34443944,9.95380636 5.68965517,10.6206897 Z M5.68965517,7.66246203 L5.68965517,5.68965517 L7.96551724,5.68965517 C7.94403608,6.47952475 7.79366798,7.24698946 7.52600896,7.96551724 C6.9342316,7.78116848 6.31831169,7.67975701 5.68965517,7.66246203 Z M8.41025586,5.68965517 L10.6206897,5.68965517 C10.5787019,6.84234284 10.1494325,7.89683859 9.45921286,8.72413793 C8.98998139,8.40450377 8.48925912,8.14835095 7.96551724,7.95735005 C8.23714849,7.24105026 8.38944614,6.4764898 8.41025586,5.68965517 Z M1.89655172,9.08042636 C2.35130129,8.77459159 2.83545775,8.52867864 3.34133301,8.34482759 C3.7151656,9.19307161 4.25179316,9.96602425 4.93103448,10.6206897 C3.74880092,10.4640758 2.69072976,9.90376781 1.89655172,9.08042636 Z M6.06896552,10.6206897 C6.74820684,9.96621881 7.2848344,9.19326616 7.65866699,8.34482759 C8.16454225,8.52867864 8.6485065,8.77459159 9.10344828,9.08042636 C8.30927024,9.90376781 7.25119908,10.4640758 6.06896552,10.6206897 Z"></path>
                    </g>
                </g>
            </g>
        </g>
    </g>
</svg>