<?xml version="1.0" encoding="UTF-8"?>
<svg width="38px" height="33px" viewBox="0 0 38 33" version="1.1" xmlns="http://www.w3.org/2000/svg" xmlns:xlink="http://www.w3.org/1999/xlink">
    <!-- Generator: Sketch 50.2 (55047) - http://www.bohemiancoding.com/sketch -->
    <title>shop</title>
    <desc>Created with Sketch.</desc>
    <defs></defs>
    <g id="Symbols" stroke="none" stroke-width="1" fill="none" fill-rule="evenodd">
        <g id="forhandler_cardbig" transform="translate(-361.000000, -322.000000)" fill="#666666" fill-rule="nonzero">
            <g id="forhandler_card">
                <g id="Iteam's_card_big-Copy-8">
                    <g id="shop" transform="translate(361.513333, 322.476079)">
                        <path d="M25.680956,16.776699 L20.739044,16.776699 C19.3865208,16.776699 18.2866667,17.8377894 18.2866667,19.1426438 L18.2866667,22.7991038 C18.2866667,24.1039582 19.3865208,25.1650485 20.739044,25.1650485 L25.680956,25.1650485 C27.0334792,25.1650485 28.1333333,24.1039582 28.1333333,22.7991038 L28.1333333,19.1426438 C28.1333333,17.8377894 27.0334792,16.776699 25.680956,16.776699 Z M26.3497862,22.7991038 C26.3497862,23.1575803 26.0450969,23.4443615 25.680956,23.4443615 L20.739044,23.4443615 C20.3674717,23.4443615 20.0702138,23.1504108 20.0702138,22.7991038 L20.0702138,19.1426438 C20.0702138,18.7841673 20.3749031,18.4973861 20.739044,18.4973861 L25.680956,18.4973861 C26.0525283,18.4973861 26.3497862,18.7913368 26.3497862,19.1426438 L26.3497862,22.7991038 Z" id="Shape"></path>
                        <path d="M36.5733333,10.5353325 C36.5733333,10.3773025 36.5359679,10.2267978 36.4537638,10.0913435 L31.0133497,0.459039487 C30.8564147,0.1806057 30.5574908,0 30.2361477,0 L6.32971257,0 C6.00836943,0 5.70944558,0.173080462 5.55251056,0.459039487 L0.119569541,10.0913435 C0.0448385779,10.2267978 0,10.3773025 0,10.5353325 C0,12.6950756 1.29284566,14.5462841 3.13870045,15.366535 L3.13870045,31.2523113 C3.13870045,31.748977 3.54224765,32.1553398 4.03547201,32.1553398 L8.99013486,32.1553398 C8.99760796,32.1553398 9.00508105,32.1553398 9.01255415,32.1553398 L15.9625337,32.1553398 C15.9700068,32.1553398 15.9774799,32.1553398 15.984953,32.1553398 L32.5303882,32.1553398 C33.0236126,32.1553398 33.4271598,31.748977 33.4271598,31.2523113 L33.4271598,15.4794135 C33.4271598,15.4417873 33.4271598,15.4116864 33.4196867,15.3815854 C35.2730146,14.5613345 36.5733333,12.7026009 36.5733333,10.5353325 Z M6.85282931,1.81358224 L29.7130309,1.81358224 L33.9652227,9.34634497 L2.60811061,9.34634497 L6.85282931,1.81358224 Z M26.0287944,11.1448767 C25.7448168,12.770328 24.3324016,14.004467 22.6360087,14.004467 C20.9396159,14.004467 19.5272007,12.770328 19.243223,11.1448767 L26.0287944,11.1448767 Z M17.3375834,11.1448767 C17.0536058,12.770328 15.6411906,14.004467 13.9447977,14.004467 C12.2484048,14.004467 10.8359896,12.770328 10.5445389,11.1448767 L17.3375834,11.1448767 Z M1.85332788,11.1448767 L8.64637243,11.1448767 C8.36239477,12.770328 6.94250647,14.004467 5.24611361,14.004467 C3.54972075,14.0119922 2.13730554,12.770328 1.85332788,11.1448767 Z M15.0657622,30.3492828 L9.9093257,30.3492828 L9.9093257,20.6041003 C9.9093257,19.8967279 10.477281,19.3172846 11.1872252,19.3172846 L13.7953358,19.3172846 C14.4978068,19.3172846 15.0732353,19.8892027 15.0732353,20.6041003 L15.0732353,30.3492828 L15.0657622,30.3492828 Z M31.6336167,30.3492828 L16.8593053,30.3492828 L16.8593053,20.6041003 C16.8593053,18.9033966 15.4842556,17.5112276 13.7878627,17.5112276 L11.1797521,17.5112276 C9.49083231,17.5112276 8.10830949,18.8958713 8.10830949,20.6041003 L8.10830949,30.356808 L4.93224356,30.356808 L4.93224356,15.810524 C5.03686691,15.8180492 5.14149026,15.8180492 5.24611361,15.8180492 C7.05460292,15.8180492 8.65384553,14.892445 9.59545566,13.4852256 C10.5370658,14.892445 12.1363084,15.8180492 13.9447977,15.8180492 C15.753287,15.8180492 17.3450565,14.892445 18.2941398,13.4852256 C19.2357499,14.892445 20.8349925,15.8180492 22.6360087,15.8180492 C24.444498,15.8180492 26.0362675,14.892445 26.9778777,13.4852256 C27.9194878,14.892445 29.5187304,15.8180492 31.3272197,15.8180492 C31.4318431,15.8180492 31.5289933,15.810524 31.6336167,15.810524 L31.6336167,30.3492828 Z M31.3272197,14.0119922 C29.6308269,14.0119922 28.2184117,12.7778533 27.934434,11.152402 L34.7274785,11.152402 C34.4360278,12.770328 33.0236126,14.0119922 31.3272197,14.0119922 Z" id="Shape"></path>
                    </g>
                </g>
            </g>
        </g>
    </g>
</svg>