<?xml version="1.0" encoding="UTF-8"?>
<svg width="12px" height="17px" viewBox="0 0 12 17" version="1.1" xmlns="http://www.w3.org/2000/svg" xmlns:xlink="http://www.w3.org/1999/xlink">
    <!-- Generator: Sketch 50 (54983) - http://www.bohemiancoding.com/sketch -->
    <title>action-find-pa-kort</title>
    <desc>Created with Sketch.</desc>
    <defs></defs>
    <g id="Symbols" stroke="none" stroke-width="1" fill="none" fill-rule="evenodd">
        <g id="Iteam's_card_big-Copy-11" transform="translate(-100.000000, -402.000000)">
            <g id="action-find-pa-kort">
                <g transform="translate(100.000000, 402.000000)">
                    <path d="M5.94461965,0.186533288 C2.92881825,0.186533288 0.47768491,2.68089427 0.47768491,5.74431994 C0.47768491,6.82601313 0.784004332,7.83539749 1.31168288,8.69075814 L5.94288577,16.8504872 L10.5798683,8.68311574 C11.104657,7.8301066 11.4092425,6.82307375 11.4092425,5.74431994 C11.4092425,2.68089427 8.95579737,0.186533288 5.94461965,0.186533288 M5.94404169,9.50379166 C5.30308275,9.50379166 4.70200313,9.33507104 4.17663642,9.04230842 C4.08936428,8.99410253 4.00382603,8.94295726 3.92175554,8.88828472 C3.70848787,8.74601855 3.51024719,8.58376457 3.33165719,8.40211066 C2.66237815,7.72193728 2.24855795,6.78251025 2.24855795,5.74431994 C2.24855795,3.66911507 3.90383875,1.98602397 5.94404169,1.98602397 C6.96472112,1.98602397 7.88772512,2.40635584 8.55700416,3.0871171 C8.73559416,3.26877101 8.89453348,3.47100061 9.03497805,3.68733924 C9.0893064,3.77081774 9.1384331,3.85841137 9.18640387,3.94718076 C9.47422854,4.48156071 9.63952543,5.09295252 9.63952543,5.74431994 C9.63952543,7.82011269 7.98482259,9.50379166 5.94404169,9.50379166" id="Fill-52" fill="#666666"></path>
                    <path d="M8.5564262,3.08723467 C7.88772512,2.40647341 6.96472112,1.98555367 5.94404169,1.98555367 C3.90383875,1.98555367 2.24855795,3.66923264 2.24855795,5.74443752 C2.24855795,6.78262783 2.66237815,7.72146698 3.33107922,8.40164036 C3.51024719,8.58388215 3.70848787,8.74613612 3.92175554,8.88781442 C4.00382603,8.94366271 4.08936428,8.99363223 4.17663642,9.04301388 C4.23154273,8.89134168 4.29107273,8.74202099 4.3540705,8.59446393 C5.20714119,6.59744666 6.78266335,4.99489468 8.74657542,4.12718862 C8.89106571,4.06311005 9.03786785,4.00255875 9.18640387,3.94729834 C9.1384331,3.85794107 9.0893064,3.77093532 9.03497805,3.68686894 C8.89453348,3.47053031 8.73559416,3.26888858 8.5564262,3.08723467 Z" id="Fill-54" fill="#F6F6F6"></path>
                    <path d="M9.18692404,3.94723955 C9.03781006,4.00308784 8.89158588,4.06363914 8.74709559,4.12712983 C6.78260556,4.99483589 5.2070834,6.59738787 4.35343474,8.59499302 C4.29043698,8.74255008 4.23148494,8.89128289 4.17657863,9.04295509 C4.70194533,9.33512983 5.30302495,9.50326257 5.94398389,9.50326257 C7.9847648,9.50326257 9.63946764,7.82075936 9.63946764,5.74437873 C9.63946764,5.09301131 9.47359278,4.48103162 9.18692404,3.94723955" id="Fill-56" fill="#E5E5E5"></path>
                </g>
            </g>
        </g>
    </g>
</svg>