<?xml version="1.0" encoding="UTF-8"?>
<svg width="16px" height="16px" viewBox="0 0 16 16" version="1.1" xmlns="http://www.w3.org/2000/svg" xmlns:xlink="http://www.w3.org/1999/xlink">
    <!-- Generator: Sketch 50 (54983) - http://www.bohemiancoding.com/sketch -->
    <title>status-oprettelsestidspunkt copy</title>
    <desc>Created with Sketch.</desc>
    <defs></defs>
    <g id="Symbols" stroke="none" stroke-width="1" fill="none" fill-rule="evenodd">
        <g id="Iteam's_card_big-Copy-11" transform="translate(-18.000000, -402.000000)">
            <g id="status-oprettelsestidspunkt-copy">
                <g transform="translate(18.000000, 402.000000)">
                    <path d="M8.16770078,0.285311169 C3.93854753,0.285311169 0.510599481,3.71379948 0.510599481,7.94241247 C0.510599481,12.1715657 3.93854753,15.5995138 8.16770078,15.5995138 C12.396854,15.5995138 15.8248021,12.1715657 15.8248021,7.94241247 C15.8248021,3.71379948 12.396854,0.285311169 8.16770078,0.285311169 M8.16770078,13.8312436 C6.88674494,13.8312436 5.70249558,13.4211865 4.73651117,12.727493 C3.24863584,11.6588592 2.27886961,9.91382026 2.27886961,7.94241247 C2.27886961,4.69004883 4.91533714,2.0535813 8.16770078,2.0535813 C10.2028592,2.0535813 11.9965216,3.08655792 13.0548904,4.65655273 C13.6869943,5.59444364 14.0565319,6.72520727 14.0565319,7.94241247 C14.0565319,11.1947761 11.4200644,13.8312436 8.16770078,13.8312436" id="Fill-110" fill="#666666"></path>
                    <path d="M13.0545122,4.65644468 C11.9966836,3.08644987 10.202481,2.05347325 8.1673226,2.05347325 C4.91549922,2.05347325 2.27903169,4.69048104 2.27903169,7.94230442 C2.27903169,9.91371221 3.24879792,11.6587512 4.73667325,12.7273849 C6.47901091,9.15950961 9.42828883,6.29505247 13.0545122,4.65644468" id="Fill-112" fill="#F6F6F6"></path>
                    <path d="M13.0545122,4.65644468 C9.42828883,6.29505247 6.47901091,9.15950961 4.73667325,12.7273849 C5.70265766,13.4210784 6.88690701,13.8311356 8.1673226,13.8311356 C11.4196862,13.8311356 14.056694,11.1952083 14.056694,7.94230442 C14.056694,6.72509922 13.6871564,5.59433558 13.0545122,4.65644468" id="Fill-114" fill="#E5E5E5"></path>
                    <path d="M8.8637174,7.65402182 L8.8637174,3.76577247 L7.47146805,3.76577247 L7.47146805,7.94252052 C7.47146805,8.12674909 7.54386286,8.29260883 7.6600187,8.41686857 L7.65893818,8.41848935 L10.0117694,10.7718608 L10.9966629,9.78696727 L8.8637174,7.65402182 Z" id="Fill-116" fill="#666666"></path>
                </g>
            </g>
        </g>
    </g>
</svg>